<?xml version="1.0" encoding="utf-8"?>
<!-- Generator: Adobe Illustrator 21.1.0, SVG Export Plug-In . SVG Version: 6.00 Build 0)  -->
<svg version="1.1" id="Layer_1" xmlns="http://www.w3.org/2000/svg" xmlns:xlink="http://www.w3.org/1999/xlink" x="0px" y="0px"
	 viewBox="0 0 792 612" style="enable-background:new 0 0 792 612;" xml:space="preserve">
<style type="text/css">
	.st0{fill:#3D95CE;}
</style>
<g>
	<path class="st0" d="M148.4,252c3.9,6.4,5.7,13.1,5.7,21.4c0,26.7-22.8,61.4-41.3,85.7H70.5L53.6,257.8l37-3.5l9,72.1
		c8.4-13.6,18.7-35.1,18.7-49.7c0-8-1.4-13.4-3.5-17.9L148.4,252z"/>
	<path class="st0" d="M196.3,296.6c6.8,0,23.9-3.1,23.9-12.9c0-4.7-3.3-7-7.2-7C206.2,276.7,197.3,284.9,196.3,296.6z M195.5,315.9
		c0,11.9,6.6,16.6,15.4,16.6c9.5,0,18.7-2.3,30.6-8.4l-4.5,30.4c-8.4,4.1-21.4,6.8-34.1,6.8c-32.1,0-43.6-19.5-43.6-43.8
		c0-31.6,18.7-65.1,57.3-65.1c21.2,0,33.1,11.9,33.1,28.5C249.7,307.5,215.4,315.7,195.5,315.9z"/>
	<path class="st0" d="M356.4,275.8c0,3.9-0.6,9.5-1.2,13.2l-11.1,70.1h-36l10.1-64.3c0.2-1.7,0.8-5.3,0.8-7.2c0-4.7-2.9-5.8-6.4-5.8
		c-4.7,0-9.3,2.1-12.5,3.7l-11.5,73.6h-36.2l16.5-105h31.4l0.4,8.4c7.4-4.9,17.1-10.1,31-10.1C350,252.4,356.4,261.7,356.4,275.8z"
		/>
	<path class="st0" d="M463.3,263.9c10.3-7.4,20.1-11.5,33.5-11.5c18.5,0,24.9,9.4,24.9,23.4c0,3.9-0.6,9.5-1.2,13.2l-11.1,70.1h-36
		l10.3-65.7c0.2-1.8,0.6-3.9,0.6-5.3c0-5.3-2.9-6.4-6.4-6.4c-4.5,0-8.9,1.9-12.3,3.7l-11.5,73.6h-36l10.3-65.7
		c0.2-1.8,0.6-3.9,0.6-5.3c0-5.3-2.9-6.4-6.4-6.4c-4.7,0-9.3,2.1-12.5,3.7l-11.5,73.6h-36.2l16.5-105h31l1,8.8
		c7.2-5.3,16.9-10.5,30-10.5C452.2,252.4,459.6,257.3,463.3,263.9z"/>
	<path class="st0" d="M593.4,294.5c0-8.6-2.1-14.4-8.6-14.4c-14.2,0-17.1,25.1-17.1,38c0,9.8,2.7,15.8,9.1,15.8
		C590.3,333.8,593.4,307.3,593.4,294.5z M531.1,316.5c0-33.1,17.5-64.1,57.8-64.1c30.4,0,41.5,17.9,41.5,42.7
		c0,32.7-17.3,66.6-58.6,66.6C541.3,361.7,531.1,341.6,531.1,316.5z"/>
	<path class="st0" d="M701.4,293.5c0-8.6-2.1-14.4-8.6-14.4c-14.2,0-17.1,25.1-17.1,38c0,9.8,2.7,15.8,9.1,15.8
		C698.3,332.8,701.4,306.3,701.4,293.5z M639.1,315.5c0-33.1,17.5-64.1,57.8-64.1c30.4,0,41.5,17.9,41.5,42.7
		c0,32.7-17.3,66.6-58.6,66.6C649.3,360.7,639.1,340.6,639.1,315.5z"/>
</g>
</svg>
